<?xml version="1.0" encoding="utf-8"?>

<!-- Uploaded to: SVG Repo, www.svgrepo.com, Generator: SVG Repo Mixer Tools -->
<svg fill="#000000" height="800px" width="800px" version="1.1" id="Icons" xmlns="http://www.w3.org/2000/svg" xmlns:xlink="http://www.w3.org/1999/xlink"
     viewBox="0 0 32 32" xml:space="preserve">
<path d="M26,21V6c0-2.8-2.2-5-5-5H11C8.2,1,6,3.2,6,6v15c0,2.3,1.6,4.3,3.8,4.8l-1.5,1.5c0,0,0,0,0,0l-2,2c-0.4,0.4-0.4,1,0,1.4
	C6.5,30.9,6.7,31,7,31s0.5-0.1,0.7-0.3L9.4,29h13.2l1.7,1.7c0.2,0.2,0.5,0.3,0.7,0.3s0.5-0.1,0.7-0.3c0.4-0.4,0.4-1,0-1.4l-2-2
	c0,0,0,0,0,0l-1.5-1.5C24.4,25.3,26,23.3,26,21z M11,3h10v9c0,1.7-1.3,3-3,3h-4c-1.7,0-3-1.3-3-3V3z M9,20.5c0-1.4,1.1-2.5,2.5-2.5
	s2.5,1.1,2.5,2.5S12.9,23,11.5,23S9,21.9,9,20.5z M11.4,27l1-1h7.2l1,1H11.4z M20.5,23c-1.4,0-2.5-1.1-2.5-2.5s1.1-2.5,2.5-2.5
	s2.5,1.1,2.5,2.5S21.9,23,20.5,23z"/>
</svg>
