<svg xmlns="http://www.w3.org/2000/svg" width="32" height="32" fill="none" aria-hidden="true">
    <path fill="#2C68DA" d="M29 3.5a.5.5 0 0 0-.5-.5h-25a.5.5 0 0 0-.5.5v25a.5.5 0 0 0 .5.5h25a.5.5 0 0 0 .5-.5z"/>
    <path fill="#fff" stroke="#fff" stroke-width=".656" d="M9.25 6.78h-.282v11.556c0 2.215.692 3.916 1.94 5.06 1.245 1.142 3.005 1.697 5.079 1.697s3.84-.555 5.09-1.696c1.255-1.144 1.953-2.845 1.953-5.061V6.78h-3.434v10.593c0 1.139-.045 2.288-.513 3.154a2.44 2.44 0 0 1-1.045 1.034c-.489.255-1.15.413-2.051.413-.904 0-1.565-.158-2.052-.413a2.4 2.4 0 0 1-1.036-1.032c-.46-.867-.497-2.015-.497-3.156V6.78z"/>
</svg>
